# xmcd
#
# Track frame offsets: 
#        187
#        23487
#        47397
#        64022
#        83775
#        100777
#        125202
#        145600
#
# Disc length: 2227 seconds
#
# Revision: 0
# Processed by: cddbd v1.5.2PL0 Copyright (c) Steve Scherf et al.
# Submitted via: ExactAudioCopy v0.95b4
#
DISCID=5d08b108
DTITLE=LATIMORE - Slow Down
DYEAR=1988
DGENRE=R&B
TTITLE0=Slow Down (But Don't Stop)
TTITLE1=That's The Way That I Do It
TTITLE2=Get Up, Start Dancing
TTITLE3=Breakdown
TTITLE4=Careful Man
TTITLE5=All You'll Ever Need
TTITLE6=One Man, One Woman, One Love
TTITLE7=Too Many Lovers
EXTD=
EXTT0=
EXTT1=
EXTT2=
EXTT3=
EXTT4=
EXTT5=
EXTT6=
EXTT7=
PLAYORDER=
